<mxfile host="app.diagrams.net" modified="2021-11-17T05:54:55.754Z" agent="5.0 (Windows NT 10.0; Win64; x64) AppleWebKit/537.36 (KHTML, like Gecko) Chrome/95.0.4638.69 Safari/537.36" etag="wuGXr36EsIOpTQdoaWJV" version="15.7.3" type="github">
  <diagram id="dv2QtuWtAXCM198p0LFP" name="Page-1">
    <mxGraphModel dx="1038" dy="579" grid="1" gridSize="10" guides="1" tooltips="1" connect="1" arrows="1" fold="1" page="1" pageScale="1" pageWidth="827" pageHeight="1169" math="0" shadow="0">
      <root>
        <mxCell id="0" />
        <mxCell id="1" parent="0" />
        <mxCell id="evyOM6vPQMrZivS5_X6k-1" value="学校端" style="rounded=0;whiteSpace=wrap;html=1;" parent="1" vertex="1">
          <mxGeometry x="20" y="150" width="120" height="60" as="geometry" />
        </mxCell>
        <mxCell id="zaQ5jrOaa6_SoWPFSIVf-4" style="edgeStyle=orthogonalEdgeStyle;rounded=0;orthogonalLoop=1;jettySize=auto;html=1;entryX=0;entryY=0.5;entryDx=0;entryDy=0;" edge="1" parent="1" source="evyOM6vPQMrZivS5_X6k-2" target="evyOM6vPQMrZivS5_X6k-21">
          <mxGeometry relative="1" as="geometry" />
        </mxCell>
        <mxCell id="evyOM6vPQMrZivS5_X6k-2" value="oa端" style="rounded=0;whiteSpace=wrap;html=1;" parent="1" vertex="1">
          <mxGeometry x="20" y="330" width="120" height="60" as="geometry" />
        </mxCell>
        <mxCell id="evyOM6vPQMrZivS5_X6k-11" style="edgeStyle=orthogonalEdgeStyle;rounded=0;orthogonalLoop=1;jettySize=auto;html=1;entryX=0;entryY=0.25;entryDx=0;entryDy=0;" parent="1" source="evyOM6vPQMrZivS5_X6k-6" target="evyOM6vPQMrZivS5_X6k-29" edge="1">
          <mxGeometry relative="1" as="geometry">
            <mxPoint x="414" y="185" as="targetPoint" />
          </mxGeometry>
        </mxCell>
        <mxCell id="evyOM6vPQMrZivS5_X6k-6" value="&lt;span style=&quot;font-size: 13px ; text-align: left&quot;&gt;&lt;font color=&quot;#333333&quot;&gt;被设置为【学校管理员】的教师会在学校端顶部导航中新增【&lt;/font&gt;&lt;b&gt;&lt;font color=&quot;#ff4824&quot;&gt;学校控制台&lt;/font&gt;&lt;/b&gt;&lt;font color=&quot;#333333&quot;&gt;】按钮&lt;/font&gt;&lt;/span&gt;" style="text;html=1;strokeColor=none;fillColor=none;align=center;verticalAlign=middle;whiteSpace=wrap;rounded=0;" parent="1" vertex="1">
          <mxGeometry x="140" y="180" width="250" height="10" as="geometry" />
        </mxCell>
        <mxCell id="evyOM6vPQMrZivS5_X6k-4" value="学校管理系统" style="rounded=0;whiteSpace=wrap;html=1;fillColor=#d5e8d4;strokeColor=#82b366;" parent="1" vertex="1">
          <mxGeometry x="640" y="240" width="100" height="60" as="geometry" />
        </mxCell>
        <mxCell id="evyOM6vPQMrZivS5_X6k-15" value="&lt;span style=&quot;color: rgb(255 , 51 , 51)&quot;&gt;调接口判断是否有权限访问&lt;/span&gt;" style="shape=callout;whiteSpace=wrap;html=1;perimeter=calloutPerimeter;opacity=40;" parent="1" vertex="1">
          <mxGeometry x="480" y="120" width="110" height="120" as="geometry" />
        </mxCell>
        <mxCell id="evyOM6vPQMrZivS5_X6k-23" style="edgeStyle=orthogonalEdgeStyle;rounded=0;orthogonalLoop=1;jettySize=auto;html=1;entryX=0;entryY=0.667;entryDx=0;entryDy=0;entryPerimeter=0;" parent="1" source="evyOM6vPQMrZivS5_X6k-21" target="evyOM6vPQMrZivS5_X6k-30" edge="1">
          <mxGeometry relative="1" as="geometry">
            <mxPoint x="414" y="360" as="targetPoint" />
          </mxGeometry>
        </mxCell>
        <mxCell id="evyOM6vPQMrZivS5_X6k-21" value="sso" style="rounded=0;whiteSpace=wrap;html=1;opacity=40;" parent="1" vertex="1">
          <mxGeometry x="230" y="270" width="120" height="180" as="geometry" />
        </mxCell>
        <mxCell id="evyOM6vPQMrZivS5_X6k-29" value="web.ewt360.com" style="rounded=0;whiteSpace=wrap;html=1;opacity=40;fillColor=#d5e8d4;strokeColor=#82b366;" parent="1" vertex="1">
          <mxGeometry x="500" y="240" width="140" height="30" as="geometry" />
        </mxCell>
        <mxCell id="evyOM6vPQMrZivS5_X6k-30" value="admin.mistong.com" style="rounded=0;whiteSpace=wrap;html=1;opacity=40;fillColor=#ffe6cc;strokeColor=#d79b00;" parent="1" vertex="1">
          <mxGeometry x="500" y="270" width="140" height="30" as="geometry" />
        </mxCell>
        <mxCell id="evyOM6vPQMrZivS5_X6k-31" value="学校工作台" style="rounded=0;whiteSpace=wrap;html=1;fillColor=#d5e8d4;strokeColor=#82b366;opacity=70;" parent="1" vertex="1">
          <mxGeometry x="730" y="240" width="80" height="60" as="geometry" />
        </mxCell>
        <mxCell id="zaQ5jrOaa6_SoWPFSIVf-5" value="&lt;font color=&quot;#ff3333&quot;&gt;登录过期，跳转到e网通登录登录页&lt;/font&gt;" style="shape=callout;whiteSpace=wrap;html=1;perimeter=calloutPerimeter;opacity=40;" vertex="1" parent="1">
          <mxGeometry x="600" y="120" width="90" height="120" as="geometry" />
        </mxCell>
        <mxCell id="zaQ5jrOaa6_SoWPFSIVf-6" value="" style="shape=callout;whiteSpace=wrap;html=1;perimeter=calloutPerimeter;opacity=40;rotation=-180;" vertex="1" parent="1">
          <mxGeometry x="570" y="300" width="110" height="120" as="geometry" />
        </mxCell>
        <mxCell id="zaQ5jrOaa6_SoWPFSIVf-8" value="登录过期，跳转到sso登录页" style="text;html=1;align=center;verticalAlign=middle;whiteSpace=wrap;rounded=0;fontColor=#FF3333;" vertex="1" parent="1">
          <mxGeometry x="587.5" y="350" width="75" height="50" as="geometry" />
        </mxCell>
        <mxCell id="zaQ5jrOaa6_SoWPFSIVf-10" value="" style="shape=callout;whiteSpace=wrap;html=1;perimeter=calloutPerimeter;opacity=40;rotation=-180;" vertex="1" parent="1">
          <mxGeometry x="450" y="300" width="110" height="120" as="geometry" />
        </mxCell>
        <mxCell id="zaQ5jrOaa6_SoWPFSIVf-11" value="调接口判断是否有权限访问" style="text;html=1;align=center;verticalAlign=middle;whiteSpace=wrap;rounded=0;fontColor=#FF3333;" vertex="1" parent="1">
          <mxGeometry x="467.5" y="350" width="75" height="50" as="geometry" />
        </mxCell>
      </root>
    </mxGraphModel>
  </diagram>
</mxfile>
